<svg width="24" height="26" viewBox="0 0 24 26" fill="none" xmlns="http://www.w3.org/2000/svg">
<path d="M0.47998 6.5001C0.47998 5.7363 0.783409 5.00375 1.32351 4.46365C1.86362 3.92355 2.59615 3.62012 3.35998 3.62012H13.44C14.2038 3.62012 14.9363 3.92355 15.4765 4.46365C16.0166 5.00375 16.32 5.7363 16.32 6.5001V12.2601C16.32 13.024 16.0166 13.7565 15.4765 14.2966C14.9363 14.8367 14.2038 15.1401 13.44 15.1401H10.56L6.23997 19.4601V15.1401H3.35998C2.59615 15.1401 1.86362 14.8367 1.32351 14.2966C0.783409 13.7565 0.47998 13.024 0.47998 12.2601V6.5001Z" fill="#A36D90"/>
<path d="M19.2 9.37991V12.2599C19.2 13.7876 18.5931 15.2526 17.5129 16.3328C16.4327 17.4131 14.9676 18.0199 13.44 18.0199H11.7523L9.20929 20.5644C9.61249 20.7789 10.0718 20.8999 10.56 20.8999H13.44L17.76 25.2199V20.8999H20.64C21.4038 20.8999 22.1363 20.5965 22.6765 20.0564C23.2166 19.5163 23.52 18.7837 23.52 18.0199V12.2599C23.52 11.4961 23.2166 10.7635 22.6765 10.2234C22.1363 9.68331 21.4038 9.37991 20.64 9.37991H19.2Z" fill="#A36D90"/>
</svg>
